<svg xmlns="http://www.w3.org/2000/svg" viewBox="0 0 1920 1080" preserveAspectRatio="xMidYMid slice" role="img" aria-label="">
  <defs>
    <linearGradient id="sky" x1="0" y1="0" x2="1" y2="1">
      <stop offset="0%" stop-color="#F7C86A"/>
      <stop offset="42%" stop-color="#E8A838"/>
      <stop offset="100%" stop-color="#1F6F7A"/>
    </linearGradient>
    <linearGradient id="sea" x1="0" y1="0" x2="0" y2="1">
      <stop offset="0%" stop-color="#2A8A96"/>
      <stop offset="100%" stop-color="#124A52"/>
    </linearGradient>
    <radialGradient id="bowl" cx="50%" cy="45%" r="45%">
      <stop offset="0%" stop-color="#FFF4E0"/>
      <stop offset="55%" stop-color="#E8892C"/>
      <stop offset="100%" stop-color="#5B8C3E"/>
    </radialGradient>
    <filter id="soft" x="-20%" y="-20%" width="140%" height="140%">
      <feGaussianBlur stdDeviation="18"/>
    </filter>
  </defs>
  <rect width="1920" height="1080" fill="url(#sky)"/>
  <ellipse cx="1480" cy="180" rx="260" ry="120" fill="#FFF2C9" opacity="0.55" filter="url(#soft)"/>
  <path d="M0 620 C420 520 780 700 1100 640 C1420 580 1680 700 1920 620 L1920 1080 L0 1080 Z" fill="url(#sea)"/>
  <path d="M0 700 C360 640 720 780 1080 720 C1440 660 1680 780 1920 720 L1920 1080 L0 1080 Z" fill="#0F3F46" opacity="0.45"/>
  <g transform="translate(960 520)">
    <ellipse cx="0" cy="80" rx="340" ry="70" fill="#0B2E34" opacity="0.35" filter="url(#soft)"/>
    <ellipse cx="0" cy="0" rx="300" ry="210" fill="url(#bowl)"/>
    <ellipse cx="0" cy="-10" rx="240" ry="150" fill="#F7F1E6" opacity="0.9"/>
    <circle cx="-90" cy="-30" r="54" fill="#E8892C"/>
    <circle cx="-20" cy="-70" r="46" fill="#5B8C3E"/>
    <circle cx="70" cy="-40" r="50" fill="#E8A838"/>
    <circle cx="20" cy="30" r="42" fill="#C44B2B"/>
    <circle cx="-50" cy="40" r="36" fill="#2F8F6B"/>
    <ellipse cx="110" cy="20" rx="48" ry="28" fill="#F2D28B"/>
  </g>
  <path d="M120 880 C360 820 520 920 760 860" fill="none" stroke="#F7F1E6" stroke-width="8" stroke-linecap="round" opacity="0.35"/>
  <path d="M1180 900 C1420 840 1600 940 1820 880" fill="none" stroke="#F7F1E6" stroke-width="8" stroke-linecap="round" opacity="0.28"/>
</svg>
